HIERARCHY
ROOT Hips
{
  OFFSET 48.8416 49.8665 -5.29685
  CHANNELS 6 Xposition Yposition Zposition Zrotation Xrotation Yrotation
  JOINT spine
  {
    OFFSET 0 6.24479 0.359107
    CHANNELS 3 Zrotation Xrotation Yrotation
    JOINT spine1
    {
      OFFSET 0 9.06941 0
      CHANNELS 3 Zrotation Xrotation Yrotation
      JOINT spine2
      {
        OFFSET 0 8.69014 0
        CHANNELS 3 Zrotation Xrotation Yrotation
        JOINT Neck
        {
          OFFSET 0 22.3112 1.06372
          CHANNELS 3 Zrotation Xrotation Yrotation
          JOINT Head
          {
            OFFSET 0 6.74081 0
            CHANNELS 3 Zrotation Xrotation Yrotation
            End Site
            {
              OFFSET 0 16.3165 -5.38097
            }
          }
        }
        JOINT RightShoulder
        {
          OFFSET -3.65916 9.38468 -0.509514
          CHANNELS 3 Zrotation Xrotation Yrotation
          JOINT RightArm
          {
            OFFSET 0 12.3089 0
            CHANNELS 3 Zrotation Xrotation Yrotation
            JOINT RightArmRoll
            {
              OFFSET 0 6.21375 0
              CHANNELS 3 Zrotation Xrotation Yrotation
              JOINT RightForeArm
              {
                OFFSET 0 18.0985 0
                CHANNELS 3 Zrotation Xrotation Yrotation
                JOINT RightForeArmRoll
                {
                  OFFSET 0 6.97279 0
                  CHANNELS 3 Zrotation Xrotation Yrotation
                  JOINT RightHand
                  {
                    OFFSET 0 13.9929 0
                    CHANNELS 3 Zrotation Xrotation Yrotation
                    End Site
                    {
                      OFFSET 0 0 0
                    }
                  }
                }
              }
            }
          }
        }
        JOINT LeftShoulder
        {
          OFFSET 3.65916 9.38468 -0.509514
          CHANNELS 3 Zrotation Xrotation Yrotation
          JOINT LeftArm
          {
            OFFSET 0 12.3089 0
            CHANNELS 3 Zrotation Xrotation Yrotation
            JOINT LeftArmRoll
            {
              OFFSET 0 6.21375 0
              CHANNELS 3 Zrotation Xrotation Yrotation
              JOINT LeftForeArm
              {
                OFFSET 0 18.0985 0
                CHANNELS 3 Zrotation Xrotation Yrotation
                JOINT LeftForeArmRoll
                {
                  OFFSET 0 6.9728 0
                  CHANNELS 3 Zrotation Xrotation Yrotation
                  JOINT LeftHand
                  {
                    OFFSET 0 13.9929 0
                    CHANNELS 3 Zrotation Xrotation Yrotation
                    End Site
                    {
                      OFFSET 0 0 0
                    }
                  }
                }
              }
            }
          }
        }
      }
    }
  }
  JOINT RightUpLeg
  {
    OFFSET -5.53515 -1.015 -0.851454
    CHANNELS 3 Zrotation Xrotation Yrotation
    JOINT RightUpLegRoll
    {
      OFFSET 0 16.4075 0
      CHANNELS 3 Zrotation Xrotation Yrotation
      JOINT RightLeg
      {
        OFFSET 0 -20.3181 0
        CHANNELS 3 Zrotation Xrotation Yrotation
        JOINT RightLegRoll
        {
          OFFSET 0 20.3846 0
          CHANNELS 3 Zrotation Xrotation Yrotation
          JOINT RightFoot
          {
            OFFSET 0 16.9668 0
            CHANNELS 3 Zrotation Xrotation Yrotation
            JOINT RightToeBase
            {
              OFFSET 0 14.1834 0
              CHANNELS 3 Zrotation Xrotation Yrotation
              End Site
              {
                OFFSET 0.0060118 6.86889 -0.791746
              }
            }
          }
        }
      }
    }
  }
  JOINT LeftUpLeg
  {
    OFFSET 5.53515 -1.015 -0.851454
    CHANNELS 3 Zrotation Xrotation Yrotation
    JOINT LeftUpLegRoll
    {
      OFFSET 0 16.4076 0
      CHANNELS 3 Zrotation Xrotation Yrotation
      JOINT LeftLeg
      {
        OFFSET 0 20.3181 0
        CHANNELS 3 Zrotation Xrotation Yrotation
        JOINT LeftLegRoll
        {
          OFFSET 0 20.5731 0
          CHANNELS 3 Zrotation Xrotation Yrotation
          JOINT LeftFoot
          {
            OFFSET 0 16.7783 0
            CHANNELS 3 Zrotation Xrotation Yrotation
            JOINT LeftToeBase
            {
              OFFSET 0 14.1834 0
              CHANNELS 3 Zrotation Xrotation Yrotation
              End Site
              {
                OFFSET -0.0269423 6.86889 -0.791746
              }
            }
          }
        }
      }
    }
  }
}
MOTION
Frames: 9
Frame Time: 0.00208333
47.9764 84.1914 46.081 0.351504 1.50509 -3.27594 -0.329035 -1.96792 -0.0202669 -0.646772 0.0670908 -0.0209868 -0.646754 1.7121 -0.0101707 6.96309 9.03697 -2.44201 -3.04751 5.3334 -0.544102 70.7139 -3.60783 -3.10111 105.071 6.13785 8.32146 -5.70828e-006 1.87033e-006 7.48474e-006 12.2793 13.1069 -1.86851 -5.74195e-006 -1.46596e-006 -3 8.02887 -4.9514 0.697698 -61.8703 -10.4725 6.51124 -115.275 3.17504 -17.3123 -6.36111e-015 -1.59028e-015 -3.18055e-015 -1.71589 16.1623 0.751794 7.53474e-006 5.73464e-006 2.99999 -8.03009 -4.95141 -0.697649 177.369 4.686 1.18714 180 7.01542e-015 178.901 178.995 15.993 179.182 5.9089e-006 -6.36957e-006 0.457503 -24.8444 73.7449 26.031 8.18026 25.9962 -2.45197 -177.303 -1.57187 -1.86881 4.54188e-006 -4.6773e-006 -1.20218 0.674783 -15.2333 1.02112 3.18684e-006 6.47106e-006 -0.737833 26.7538 75.0235 -28.1485 -8.15936 27.5887 0.357044 
47.9732 84.1968 46.0509 0.347897 1.52907 -3.28893 -0.328099 -1.97035 -0.0191663 -0.645079 0.062393 -0.0180911 -0.645095 1.70741 -0.00730627 6.96182 9.10832 -2.46241 -2.99322 5.27085 -0.559958 70.714 -3.60431 -3.09938 105.093 6.11904 8.30839 -5.70828e-006 1.87033e-006 7.48474e-006 12.2826 13.1704 -1.87738 -5.74195e-006 -1.46596e-006 -3 8.02887 -4.9514 0.697698 -61.8672 -10.4665 6.50761 -115.29 3.16378 -17.2965 -1.10574e-014 -9.74045e-015 -0 -1.73065 16.1951 0.75581 7.53474e-006 5.73464e-006 2.99999 -8.03009 -4.95141 -0.697649 177.375 4.72144 1.17787 180 7.01542e-015 178.902 178.994 15.9815 179.182 5.9089e-006 -6.36957e-006 0.456651 -24.8181 73.7276 26.0035 8.18014 25.9945 -2.45381 -177.298 -1.53501 -1.86747 4.54188e-006 -4.6773e-006 -1.2022 0.670454 -15.2377 1.02018 3.18684e-006 6.47106e-006 -0.737238 26.7502 75.0215 -28.1445 -8.1591 27.5857 0.360167 
47.9971 84.1926 46.0307 0.34434 1.55335 -3.30197 -0.327188 -1.97287 -0.0180501 -0.643406 0.0575072 -0.0151353 -0.643456 1.70252 -0.00438183 6.96021 9.18057 -2.48267 -2.93783 5.20603 -0.575734 70.7141 -3.60006 -3.0973 105.114 6.09902 8.2959 -5.70828e-006 1.87033e-006 7.48474e-006 12.2857 13.2346 -1.88635 -5.74195e-006 -1.46596e-006 -3 8.02887 -4.9514 0.697698 -61.8643 -10.4601 6.50376 -115.304 3.15137 -17.282 -9.81499e-015 -4.32357e-015 -6.36111e-015 -1.74482 16.2279 0.759768 7.53474e-006 5.73464e-006 2.99999 -8.03009 -4.95141 -0.697649 177.381 4.75742 1.16857 180 7.01542e-015 178.902 178.992 15.9705 179.182 5.9089e-006 -6.36957e-006 0.455829 -24.7918 73.7105 25.9761 8.18002 25.9927 -2.45558 -177.294 -1.49764 -1.86603 4.54188e-006 -4.6773e-006 -1.20227 0.666221 -15.2427 1.01924 3.18684e-006 6.47106e-006 -0.736671 26.7468 75.0195 -28.1407 -8.15883 27.5828 0.363095 
47.9918 84.1494 46.0239 0.340822 1.57783 -3.31503 -0.326294 -1.97546 -0.0169228 -0.641747 0.0524899 -0.0121376 -0.641832 1.6975 -0.00141536 6.9584 9.25346 -2.50284 -2.88168 5.13963 -0.591456 70.7142 -3.5953 -3.09496 105.136 6.07816 8.28383 -5.70828e-006 1.87033e-006 7.48474e-006 12.2887 13.2992 -1.89539 -5.74195e-006 -1.46596e-006 -3 8.02887 -4.9514 0.697698 -61.8614 -10.4535 6.49977 -115.318 3.13816 -17.2683 6.55989e-015 1.68967e-015 3.18055e-015 -1.7586 16.2606 0.763684 7.53474e-006 5.73464e-006 2.99999 -8.03009 -4.95141 -0.697649 177.387 4.79377 1.15927 180 7.01542e-015 178.903 178.991 15.9598 179.183 5.9089e-006 -6.36957e-006 0.455028 -24.7657 73.6934 25.9488 8.1799 25.991 -2.4573 -177.289 -1.45993 -1.86451 4.54188e-006 -4.6773e-006 -1.20237 0.662054 -15.2481 1.01832 3.18684e-006 6.47106e-006 -0.736125 26.7436 75.0176 -28.137 -8.15856 27.58 0.365887 
47.9959 84.1572 46.0046 0.33733 1.60243 -3.32812 -0.32541 -1.97809 -0.0157894 -0.640096 0.0473974 -0.00911593 -0.640216 1.69241 0.00157512 6.95648 9.3267 -2.52296 -2.8251 5.07232 -0.607144 70.7142 -3.59024 -3.09248 105.158 6.05681 8.27199 -5.70828e-006 1.87033e-006 7.48474e-006 12.2916 13.3642 -1.90448 -5.74195e-006 -1.46596e-006 -3 8.02887 -4.9514 0.697698 -61.8586 -10.4467 6.49569 -115.332 3.12448 -17.255 -2.16427e-014 -1.1778e-014 -3.18055e-015 -1.77214 16.2934 0.767577 7.53474e-006 5.73464e-006 2.99999 -8.03009 -4.95141 -0.697649 177.393 4.83033 1.14995 180 7.01542e-015 178.904 178.99 15.9493 179.183 5.9089e-006 -6.36957e-006 0.454239 -24.7397 73.6763 25.9216 8.17978 25.9894 -2.45899 -177.284 -1.422 -1.86296 4.54188e-006 -4.6773e-006 -1.20249 0.657925 -15.2538 1.0174 3.18684e-006 6.47106e-006 -0.73559 26.7403 75.0156 -28.1333 -8.15828 27.5773 0.3686 
48.0038 84.1928 45.9903 0.333854 1.62706 -3.34121 -0.324528 -1.98073 -0.0146543 -0.638446 0.0422862 -0.00608825 -0.638601 1.6873 0.00457158 6.95458 9.40002 -2.54308 -2.76845 5.00479 -0.622822 70.7143 -3.58511 -3.08996 105.18 6.03534 8.26022 -5.70828e-006 1.87033e-006 7.48474e-006 12.2945 13.4292 -1.91358 -5.74195e-006 -1.46596e-006 -3 8.02887 -4.9514 0.697698 -61.8559 -10.4399 6.4916 -115.346 3.11069 -17.2419 4.77083e-015 3.37934e-015 -0 -1.78563 16.3262 0.771465 7.53474e-006 5.73464e-006 2.99999 -8.03009 -4.95141 -0.697649 177.399 4.86695 1.14063 180 7.01543e-015 178.904 178.989 15.9388 179.183 5.9089e-006 -6.36957e-006 0.453453 -24.7137 73.6592 25.8945 8.17966 25.9877 -2.46068 -177.279 -1.38403 -1.8614 4.54188e-006 -4.6773e-006 -1.20262 0.653806 -15.2596 1.01648 3.18684e-006 6.47106e-006 -0.735058 26.7371 75.0137 -28.1297 -8.158 27.5746 0.371293 
47.9716 84.178 45.9349 0.330381 1.65163 -3.35429 -0.323641 -1.98335 -0.0135224 -0.636791 0.0372125 -0.00307257 -0.636982 1.68222 0.00755602 6.95281 9.47317 -2.56324 -2.71206 4.9377 -0.638513 70.7143 -3.58013 -3.08751 105.201 6.01412 8.24833 -5.70828e-006 1.87033e-006 7.48474e-006 12.2975 13.4941 -1.92267 -5.74195e-006 -1.46596e-006 -3 8.02887 -4.9514 0.697698 -61.8531 -10.4332 6.48755 -115.36 3.09713 -17.2286 6.4605e-015 3.47873e-015 -0 -1.79924 16.359 0.775368 7.53474e-006 5.73464e-006 2.99999 -8.03009 -4.95141 -0.697649 177.406 4.90346 1.13131 180 7.01543e-015 178.905 178.988 15.9283 179.183 5.9089e-006 -6.36957e-006 0.452661 -24.6878 73.6421 25.8674 8.17954 25.986 -2.46238 -177.275 -1.34616 -1.85985 4.54188e-006 -4.6773e-006 -1.20274 0.649668 -15.2652 1.01556 3.18684e-006 6.47106e-006 -0.73452 26.7338 75.0118 -28.126 -8.15772 27.5718 0.374025 
47.9811 84.1917 45.9242 0.326899 1.67605 -3.36735 -0.322742 -1.98592 -0.0123983 -0.635126 0.0322327 -8.68542e-005 -0.635352 1.67724 0.0105104 6.95128 9.54586 -2.58349 -2.65628 4.87175 -0.65424 70.7144 -3.57551 -3.08525 105.223 5.99349 8.23614 -5.70828e-006 1.87033e-006 7.48474e-006 12.3006 13.5587 -1.93172 -5.74195e-006 -1.46596e-006 -3 8.02887 -4.9514 0.697698 -61.8502 -10.4266 6.4836 -115.374 3.08414 -17.2146 4.22417e-015 -5.46658e-016 -3.18055e-015 -1.81315 16.3917 0.779302 7.53474e-006 5.73464e-006 2.99999 -8.03009 -4.95141 -0.697649 177.412 4.9397 1.12201 180 7.01543e-015 178.905 178.987 15.9175 179.184 5.9089e-006 -6.36957e-006 0.451854 -24.6619 73.625 25.8403 8.17942 25.9843 -2.46412 -177.27 -1.30854 -1.85836 4.54188e-006 -4.6773e-006 -1.20283 0.645481 -15.2705 1.01463 3.18684e-006 6.47106e-006 -0.733968 26.7305 75.0098 -28.1223 -8.15744 27.569 0.376855 
47.9736 84.1944 45.8979 0.323397 1.70023 -3.38038 -0.321822 -1.98841 -0.0112867 -0.633444 0.0274033 0.00285089 -0.633703 1.67241 0.0134168 6.9501 9.61782 -2.60387 -2.60145 4.80761 -0.670025 70.7145 -3.57148 -3.08327 105.245 5.97382 8.22349 -5.70828e-006 1.87033e-006 7.48474e-006 12.3039 13.6226 -1.9407 -5.74195e-006 -1.46596e-006 -3 8.02887 -4.9514 0.697698 -61.8472 -10.4203 6.47982 -115.388 3.07206 -17.1997 1.56543e-015 7.45443e-016 -3.18055e-015 -1.82753 16.4245 0.783287 7.53474e-006 5.73464e-006 2.99999 -8.03009 -4.95141 -0.697649 177.418 4.97552 1.11272 180 7.01543e-015 178.906 178.985 15.9064 179.184 5.9089e-006 -6.36957e-006 0.451023 -24.636 73.6078 25.8132 8.1793 25.9825 -2.46591 -177.265 -1.27133 -1.85696 4.54188e-006 -4.6773e-006 -1.20289 0.641218 -15.2753 1.01369 3.18684e-006 6.47106e-006 -0.733393 26.7271 75.0078 -28.1184 -8.15718 27.5661 0.379841 
